<svg width="49" height="32" viewBox="0 0 49 32" fill="none" xmlns="http://www.w3.org/2000/svg">
<path d="M20.25 31.41L17.595 22.455H6.57L3.915 31.41H0L9.63 0H14.625L24.255 31.41H20.25ZM12.285 4.005H11.88L7.47 19.17H16.695L12.285 4.005Z" fill="#5A8784"/>
<path d="M39.8974 31.95C38.2174 31.95 36.7174 31.665 35.3974 31.095C34.1074 30.495 33.0124 29.67 32.1124 28.62C31.2124 27.57 30.5224 26.295 30.0424 24.795C29.5924 23.295 29.3674 21.63 29.3674 19.8C29.3674 17.97 29.6074 16.305 30.0874 14.805C30.5674 13.305 31.2574 12.03 32.1574 10.98C33.0574 9.9 34.1524 9.075 35.4424 8.505C36.7324 7.935 38.2024 7.65 39.8524 7.65C42.1024 7.65 43.9324 8.145 45.3424 9.135C46.7524 10.125 47.7874 11.415 48.4474 13.005L45.5674 14.535C45.1474 13.335 44.4424 12.405 43.4524 11.745C42.4924 11.085 41.2924 10.755 39.8524 10.755C38.8024 10.755 37.8574 10.935 37.0174 11.295C36.2074 11.625 35.5174 12.105 34.9474 12.735C34.3774 13.365 33.9424 14.115 33.6424 14.985C33.3724 15.855 33.2374 16.8 33.2374 17.82V21.78C33.2374 22.8 33.3724 23.745 33.6424 24.615C33.9424 25.485 34.3774 26.235 34.9474 26.865C35.5174 27.495 36.2224 27.99 37.0624 28.35C37.9024 28.68 38.8624 28.845 39.9424 28.845C41.5024 28.845 42.7924 28.485 43.8124 27.765C44.8324 27.045 45.6424 26.055 46.2424 24.795L48.8074 26.55C48.1174 28.11 47.0374 29.4 45.5674 30.42C44.1274 31.44 42.2374 31.95 39.8974 31.95Z" fill="#5A8784"/>
</svg>
