<svg width="25" height="30" viewBox="0 0 25 30" fill="none" xmlns="http://www.w3.org/2000/svg">
<path d="M8.33333 2.14541V0H16.6667V2.14541H8.33333ZM11.4583 18.1287H13.5417V9.90465H11.4583V18.1287ZM12.5 30C10.787 30 9.17245 29.6603 7.65625 28.9809C6.14005 28.3015 4.81482 27.3778 3.68056 26.2098C2.5463 25.0417 1.64931 23.677 0.989583 22.1156C0.329861 20.5542 0 18.8915 0 17.1275C0 15.3635 0.329861 13.7008 0.989583 12.1395C1.64931 10.5781 2.5463 9.21335 3.68056 8.04529C4.81482 6.87723 6.14005 5.95352 7.65625 5.27414C9.17245 4.59476 10.787 4.25507 12.5 4.25507C14.0509 4.25507 15.5093 4.52324 16.875 5.05959C18.2407 5.59595 19.456 6.34088 20.5208 7.2944L22.2917 5.4708L23.75 6.97259L21.9792 8.79619C22.8125 9.7497 23.5243 10.9058 24.1146 12.2646C24.7049 13.6234 25 15.2443 25 17.1275C25 18.8915 24.6701 20.5542 24.0104 22.1156C23.3507 23.677 22.4537 25.0417 21.3194 26.2098C20.1852 27.3778 18.86 28.3015 17.3438 28.9809C15.8275 29.6603 14.213 30 12.5 30ZM12.5 27.8546C15.3935 27.8546 17.853 26.8117 19.8785 24.7259C21.9039 22.64 22.9167 20.1073 22.9167 17.1275C22.9167 14.1478 21.9039 11.615 19.8785 9.5292C17.853 7.44338 15.3935 6.40048 12.5 6.40048C9.60648 6.40048 7.14699 7.44338 5.12153 9.5292C3.09606 11.615 2.08333 14.1478 2.08333 17.1275C2.08333 20.1073 3.09606 22.64 5.12153 24.7259C7.14699 26.8117 9.60648 27.8546 12.5 27.8546Z" fill="#5A8784"/>
</svg>
