<svg width="45" height="35" viewBox="0 0 45 35" fill="none" xmlns="http://www.w3.org/2000/svg">
<path d="M20.5 27.125L27.5 20.125L34.5 27.125L37.1875 24.4375L30.125 17.5L37.0625 10.5625L34.375 7.875L27.5 14.875L20.5 7.875L17.8125 10.5625L24.875 17.5L17.8125 24.4375L20.5 27.125ZM0 17.5L10.5625 2.5625C11.1042 1.8125 11.75 1.19792 12.5 0.71875C13.25 0.239583 14.0833 0 15 0H41.25C42.2917 0 43.1771 0.364583 43.9062 1.09375C44.6354 1.82292 45 2.70833 45 3.75V31.25C45 32.2917 44.6354 33.1771 43.9062 33.9063C43.1771 34.6354 42.2917 35 41.25 35H15C14.0833 35 13.25 34.7604 12.5 34.2813C11.75 33.8021 11.1042 33.1875 10.5625 32.4375L0 17.5ZM4.6875 17.5L14.3125 31.25H41.25V3.75H14.3125L4.6875 17.5ZM41.25 17.5V3.75V31.25V17.5Z" fill="#5A8784"/>
</svg>
