<svg width="40" height="40" viewBox="0 0 40 40" fill="none" xmlns="http://www.w3.org/2000/svg">
<path d="M8.125 16.25C5.875 16.25 3.95833 15.4583 2.375 13.875C0.791666 12.2917 0 10.375 0 8.125C0 5.875 0.791666 3.95833 2.375 2.375C3.95833 0.791666 5.875 0 8.125 0C10.375 0 12.2917 0.791666 13.875 2.375C15.4583 3.95833 16.25 5.875 16.25 8.125C16.25 10.375 15.4583 12.2917 13.875 13.875C12.2917 15.4583 10.375 16.25 8.125 16.25ZM8.125 12.5C9.33333 12.5 10.3646 12.0729 11.2187 11.2187C12.0729 10.3646 12.5 9.33333 12.5 8.125C12.5 6.91667 12.0729 5.88542 11.2187 5.03125C10.3646 4.17708 9.33333 3.75 8.125 3.75C6.91667 3.75 5.88542 4.17708 5.03125 5.03125C4.17708 5.88542 3.75 6.91667 3.75 8.125C3.75 9.33333 4.17708 10.3646 5.03125 11.2187C5.88542 12.0729 6.91667 12.5 8.125 12.5ZM31.875 40C29.625 40 27.7083 39.2083 26.125 37.625C24.5417 36.0417 23.75 34.125 23.75 31.875C23.75 29.625 24.5417 27.7083 26.125 26.125C27.7083 24.5417 29.625 23.75 31.875 23.75C34.125 23.75 36.0417 24.5417 37.625 26.125C39.2083 27.7083 40 29.625 40 31.875C40 34.125 39.2083 36.0417 37.625 37.625C36.0417 39.2083 34.125 40 31.875 40ZM31.875 36.25C33.0833 36.25 34.1146 35.8229 34.9687 34.9687C35.8229 34.1146 36.25 33.0833 36.25 31.875C36.25 30.6667 35.8229 29.6354 34.9687 28.7812C34.1146 27.9271 33.0833 27.5 31.875 27.5C30.6667 27.5 29.6354 27.9271 28.7812 28.7812C27.9271 29.6354 27.5 30.6667 27.5 31.875C27.5 33.0833 27.9271 34.1146 28.7812 34.9687C29.6354 35.8229 30.6667 36.25 31.875 36.25ZM2.625 40L0 37.375L37.375 0L40 2.625L2.625 40Z" fill="#5A8784"/>
</svg>
